<?xml version="1.0" encoding="utf-8"?>
<!DOCTYPE svg PUBLIC "-//W3C//DTD SVG 1.1//EN" "http://www.w3.org/Graphics/SVG/1.1/DTD/svg11.dtd">
<svg version="1.1" id="Capa_1" xmlns="http://www.w3.org/2000/svg" xmlns:xlink="http://www.w3.org/1999/xlink" x="0px" y="0px"
	 width="36.599px" height="36.599px" viewBox="0 0 36.599 36.599" enable-background="new 0 0 36.599 36.599" xml:space="preserve">
<g>
	<path fill="#FFFFFF" d="M17.054,2.547L2.729,10.817v16.541c0,0.754-0.611,1.365-1.365,1.365C0.611,28.723,0,28.112,0,27.359V10.029
		c0-0.488,0.26-0.938,0.682-1.182L15.69,0.183c0.653-0.377,1.487-0.153,1.864,0.499C17.93,1.335,17.707,2.17,17.054,2.547z
		 M23.01,3.833c-0.377-0.653-1.211-0.876-1.864-0.499L6.139,11.998c-0.422,0.244-0.682,0.694-0.682,1.182v17.329
		c0,0.754,0.611,1.365,1.365,1.365c0.754,0,1.365-0.611,1.365-1.365V13.968l14.325-8.271C23.164,5.32,23.387,4.486,23.01,3.833z
		 M28.467,6.984c-0.377-0.653-1.211-0.876-1.864-0.499l-15.007,8.664c-0.422,0.244-0.682,0.694-0.682,1.182V33.66
		c0,0.754,0.611,1.365,1.365,1.365s1.365-0.611,1.365-1.365V17.118l14.325-8.271C28.62,8.471,28.844,7.636,28.467,6.984z
		 M32.742,27.321c-0.006-0.228-0.071-0.451-0.185-0.648c-0.021-0.036-0.043-0.07-0.067-0.104l-3.343-5.225l3.496-9.236
		c0.006-0.016,0.013-0.032,0.018-0.048c0.052-0.146,0.079-0.3,0.079-0.456l0-0.001l0-0.001c0-0.359-0.146-0.711-0.4-0.964
		c-0.084-0.084-0.18-0.157-0.283-0.216c-0.206-0.119-0.443-0.184-0.682-0.184c-0.232,0-0.46,0.061-0.661,0.172
		c-0.016,0.009-0.031,0.018-0.046,0.027l-13.606,7.855l-0.008,0.005c-0.104,0.06-0.2,0.133-0.286,0.218
		c-0.254,0.254-0.4,0.606-0.4,0.965l0,0v15.754l0,0c0,0.359,0.146,0.711,0.4,0.965c0.085,0.085,0.18,0.157,0.283,0.216
		c0.206,0.119,0.443,0.184,0.682,0.184c0.235,0,0.467-0.062,0.67-0.177c0.008-0.005,0.016-0.009,0.024-0.014l13.59-7.846
		c0.028-0.015,0.055-0.031,0.082-0.047c0.087-0.054,0.168-0.118,0.241-0.191c0.245-0.245,0.389-0.581,0.399-0.927
		c0-0.013,0.001-0.025,0.001-0.038C32.742,27.346,32.742,27.334,32.742,27.321z"/>
</g>
</svg>
